{
    "asset" : {
        "generator" : "Khronos glTF Blender I/O v1.6.16",
        "version" : "2.0"
    },
    "scene" : 0,
    "scenes" : [
        {
            "name" : "Scene",
            "nodes" : [
                0,
                1,
                2
            ]
        }
    ],
    "nodes" : [
        {
            "name" : "Light",
            "rotation" : [
                0.16907575726509094,
                0.7558803558349609,
                -0.27217137813568115,
                0.570947527885437
            ],
            "translation" : [
                4.076245307922363,
                5.903861999511719,
                -1.0054539442062378
            ]
        },
        {
            "name" : "Camera",
            "rotation" : [
                0.483536034822464,
                0.33687159419059753,
                -0.20870360732078552,
                0.7804827094078064
            ],
            "translation" : [
                7.358891487121582,
                4.958309173583984,
                6.925790786743164
            ]
        },
        {
            "mesh" : 0,
            "name" : "Cube"
        }
    ],
    "materials" : [
        {
            "doubleSided" : true,
            "name" : "FrameMaterial",
            "pbrMetallicRoughness" : {
                "baseColorFactor" : [
                    0.800000011920929,
                    0.800000011920929,
                    0.800000011920929,
                    1
                ],
                "metallicFactor" : 0,
                "roughnessFactor" : 0.5
            }
        },
        {
            "doubleSided" : true,
            "name" : "CircuitBoardMaterial",
            "pbrMetallicRoughness" : {
                "baseColorFactor" : [
                    0,
                    0.23177050054073334,
                    0.0036631240509450436,
                    1
                ],
                "metallicFactor" : 0,
                "roughnessFactor" : 0.5
            }
        },
        {
            "doubleSided" : true,
            "name" : "SolarMaterial",
            "pbrMetallicRoughness" : {
                "baseColorFactor" : [
                    0.0016458609607070684,
                    0,
                    0.16999080777168274,
                    1
                ],
                "metallicFactor" : 0,
                "roughnessFactor" : 0.5
            }
        }
    ],
    "meshes" : [
        {
            "name" : "Cube.001",
            "primitives" : [
                {
                    "attributes" : {
                        "POSITION" : 0,
                        "NORMAL" : 1,
                        "TEXCOORD_0" : 2
                    },
                    "indices" : 3,
                    "material" : 0
                },
                {
                    "attributes" : {
                        "POSITION" : 4,
                        "NORMAL" : 5,
                        "TEXCOORD_0" : 6
                    },
                    "indices" : 7,
                    "material" : 1
                },
                {
                    "attributes" : {
                        "POSITION" : 8,
                        "NORMAL" : 9,
                        "TEXCOORD_0" : 10
                    },
                    "indices" : 11,
                    "material" : 2
                }
            ]
        }
    ],
    "accessors" : [
        {
            "bufferView" : 0,
            "componentType" : 5126,
            "count" : 910,
            "max" : [
                0.05270163714885712,
                0.4230000078678131,
                0.052696343511343
            ],
            "min" : [
                -0.052673496305942535,
                -0.007500000298023224,
                -0.05270000174641609
            ],
            "type" : "VEC3"
        },
        {
            "bufferView" : 1,
            "componentType" : 5126,
            "count" : 910,
            "type" : "VEC3"
        },
        {
            "bufferView" : 2,
            "componentType" : 5126,
            "count" : 910,
            "type" : "VEC2"
        },
        {
            "bufferView" : 3,
            "componentType" : 5123,
            "count" : 1728,
            "type" : "SCALAR"
        },
        {
            "bufferView" : 4,
            "componentType" : 5126,
            "count" : 40,
            "max" : [
                0.051500000059604645,
                0.4155000150203705,
                0.051500000059604645
            ],
            "min" : [
                -0.051500000059604645,
                0,
                -0.051500000059604645
            ],
            "type" : "VEC3"
        },
        {
            "bufferView" : 5,
            "componentType" : 5126,
            "count" : 40,
            "type" : "VEC3"
        },
        {
            "bufferView" : 6,
            "componentType" : 5126,
            "count" : 40,
            "type" : "VEC2"
        },
        {
            "bufferView" : 7,
            "componentType" : 5123,
            "count" : 84,
            "type" : "SCALAR"
        },
        {
            "bufferView" : 8,
            "componentType" : 5126,
            "count" : 144,
            "max" : [
                0.05270163714885712,
                0.4166834056377411,
                0.052696343511343
            ],
            "min" : [
                -0.052673496305942535,
                0.003938436508178711,
                -0.05270000174641609
            ],
            "type" : "VEC3"
        },
        {
            "bufferView" : 9,
            "componentType" : 5126,
            "count" : 144,
            "type" : "VEC3"
        },
        {
            "bufferView" : 10,
            "componentType" : 5126,
            "count" : 144,
            "type" : "VEC2"
        },
        {
            "bufferView" : 11,
            "componentType" : 5123,
            "count" : 288,
            "type" : "SCALAR"
        }
    ],
    "bufferViews" : [
        {
            "buffer" : 0,
            "byteLength" : 10920,
            "byteOffset" : 0
        },
        {
            "buffer" : 0,
            "byteLength" : 10920,
            "byteOffset" : 10920
        },
        {
            "buffer" : 0,
            "byteLength" : 7280,
            "byteOffset" : 21840
        },
        {
            "buffer" : 0,
            "byteLength" : 3456,
            "byteOffset" : 29120
        },
        {
            "buffer" : 0,
            "byteLength" : 480,
            "byteOffset" : 32576
        },
        {
            "buffer" : 0,
            "byteLength" : 480,
            "byteOffset" : 33056
        },
        {
            "buffer" : 0,
            "byteLength" : 320,
            "byteOffset" : 33536
        },
        {
            "buffer" : 0,
            "byteLength" : 168,
            "byteOffset" : 33856
        },
        {
            "buffer" : 0,
            "byteLength" : 1728,
            "byteOffset" : 34024
        },
        {
            "buffer" : 0,
            "byteLength" : 1728,
            "byteOffset" : 35752
        },
        {
            "buffer" : 0,
            "byteLength" : 1152,
            "byteOffset" : 37480
        },
        {
            "buffer" : 0,
            "byteLength" : 576,
            "byteOffset" : 38632
        }
    ],
    "buffers" : [
        {
            "byteLength" : 39208,
            "uri" : "data:application/octet-stream;base64,"
        }
    ]
}
